# xmcd CD database file generated by Grip 3.2.0
# 
# Track frame offsets:
#       183
#       13818
#       43180
#       59825
#       76748
#       94015
#       113215
#       129798
#       142440
#       174018
#       192103
# 
# Disc length: 2973 seconds
# 
# Revision: 2
# Processed by: cddbd v1.5.1PL0 Copyright (c) Steve Scherf et al.
# Submitted via: Grip 3.2.0
# 
DISCID=920b9b0b
DTITLE=Toquinho e Vinicius - Personalidade
DYEAR=1900
DGENRE=Blues
TTITLE0=Meu Pranto Rolou
TTITLE1=Como Dizia O Poeta
TTITLE2=Tudo Na Mais Santa Paz
TTITLE3=Como e Duro Trabalhar
TTITLE4=Escravo Da Alegria
TTITLE5=Aquarela
TTITLE6=Adeus
TTITLE7=Onde Anda Voce
TTITLE8=A Bencao Bahia
TTITLE9=As Cores de Abril
TTITLE10=Samba Da Bencao
EXTD=
EXTT0=
EXTT1=Testamento\nPr  Viver Um Grande Amor\nMorena Flor\nSamba Da Volta\nReg
EXTT1=ra Tr s
EXTT2=
EXTT3=
EXTT4=
EXTT5=
EXTT6=
EXTT7=
EXTT8=Tarde Em Itapo \nTatamir \nMeu Pai Oxal \nCanto De Oxum\nMaria, Vai Co
EXTT8=m As Outras\nA B n  o Bahia
EXTT9=
EXTT10=
PLAYORDER=
